<?xml version="1.0" standalone="no"?>
<!DOCTYPE svg PUBLIC "-//W3C//DTD SVG 20010904//EN"
 "http://www.w3.org/TR/2001/REC-SVG-20010904/DTD/svg10.dtd">
<svg version="1.0" xmlns="http://www.w3.org/2000/svg"
 width="1200.000000pt" height="1200.000000pt" viewBox="0 0 1200.000000 1200.000000"
 preserveAspectRatio="xMidYMid meet">
<metadata>
Created by potrace 1.14, written by Peter Selinger 2001-2017
</metadata>
<g transform="translate(0.000000,1200.000000) scale(0.100000,-0.100000)"
fill="#000000" stroke="none">
<path d="M5968 11655 c-2 -1 -32 -5 -68 -9 -110 -11 -152 -26 -475 -181 -77
-37 -176 -84 -220 -105 -44 -21 -165 -79 -269 -129 -103 -50 -190 -91 -191
-91 -1 0 -91 -43 -200 -96 -109 -52 -230 -110 -269 -128 -39 -19 -127 -61
-196 -94 -247 -119 -381 -183 -442 -211 -35 -16 -135 -64 -223 -106 -88 -43
-205 -99 -260 -125 -55 -26 -149 -71 -210 -100 -60 -29 -162 -77 -225 -108
-157 -74 -310 -148 -465 -222 -71 -34 -166 -79 -210 -100 -44 -21 -156 -74
-249 -119 -93 -44 -171 -81 -173 -81 -2 0 -36 -18 -74 -41 -78 -45 -182 -138
-234 -209 -54 -74 -113 -203 -129 -282 -2 -13 -16 -70 -30 -128 -13 -58 -27
-116 -30 -130 -3 -14 -16 -74 -31 -135 -14 -60 -32 -139 -40 -175 -8 -36 -24
-105 -35 -155 -12 -49 -27 -117 -35 -150 -7 -33 -32 -141 -55 -240 -23 -99
-43 -187 -45 -195 -5 -24 -134 -589 -150 -655 -8 -33 -17 -71 -19 -85 -3 -14
-17 -74 -31 -135 -37 -155 -78 -334 -119 -520 -20 -88 -43 -185 -51 -215 -12
-47 -67 -286 -79 -345 -3 -11 -44 -189 -91 -395 -104 -449 -90 -390 -109 -475
-8 -38 -24 -108 -35 -155 -11 -47 -23 -101 -26 -120 -11 -58 -7 -215 5 -261 7
-24 14 -52 16 -63 7 -36 38 -111 67 -161 26 -45 102 -153 117 -165 4 -4 55
-68 125 -158 5 -7 17 -21 25 -30 9 -9 33 -39 55 -67 22 -27 46 -57 52 -65 7
-8 92 -114 189 -235 208 -260 228 -284 274 -340 19 -24 55 -69 80 -100 25 -31
50 -62 55 -68 6 -7 54 -66 106 -132 53 -66 121 -151 152 -190 31 -38 60 -74
65 -80 36 -46 259 -322 267 -331 6 -6 21 -26 35 -44 14 -18 30 -38 35 -44 6
-6 37 -45 70 -86 33 -41 65 -82 72 -90 7 -8 128 -160 270 -336 302 -376 314
-391 374 -463 25 -31 63 -79 85 -107 158 -205 411 -509 463 -556 107 -99 273
-176 417 -194 32 -4 1099 -7 2369 -6 2532 0 2379 -3 2528 57 120 49 244 144
332 255 114 142 314 391 334 415 14 17 40 49 58 70 277 348 337 423 351 440 9
11 53 65 97 120 134 168 264 329 278 345 8 8 58 71 113 140 54 69 105 131 111
138 7 7 34 41 60 75 26 34 50 64 53 67 3 3 124 154 270 335 146 182 272 339
281 350 10 11 57 70 105 130 83 104 512 638 635 790 109 136 162 237 194 375
16 72 15 282 -3 335 -5 17 -14 53 -20 80 -6 28 -23 97 -36 155 -14 58 -27 116
-30 130 -3 14 -7 34 -10 45 -3 11 -23 99 -45 195 -22 96 -49 216 -61 265 -22
92 -47 200 -56 245 -3 14 -14 61 -24 105 -31 132 -148 638 -154 670 -3 11 -16
70 -30 130 -15 61 -37 157 -51 215 -45 195 -97 424 -131 570 -18 80 -49 215
-69 300 -43 188 -44 190 -49 215 -2 11 -45 198 -95 415 -170 738 -163 712
-238 842 -65 111 -217 243 -348 303 -42 18 -181 85 -395 187 -228 110 -374
180 -460 220 -47 22 -146 70 -220 105 -74 36 -166 80 -205 98 -38 18 -133 63
-210 100 -77 37 -182 87 -234 112 -51 24 -146 69 -210 100 -154 74 -323 154
-446 213 -55 26 -158 76 -230 110 -71 34 -170 82 -220 105 -49 23 -137 65
-195 93 -265 127 -371 178 -455 217 -49 23 -200 95 -335 160 -271 129 -353
160 -450 170 -36 4 -79 8 -97 10 -17 2 -33 2 -35 0z"/>
</g>
</svg>
